<svg xmlns="http://www.w3.org/2000/svg" version="1.1" xmlns:xlink="http://www.w3.org/1999/xlink" width="512" height="512" x="0" y="0" viewBox="0 0 64 64" style="enable-background:new 0 0 512 512" xml:space="preserve" className=""><g><g data-name="Layer 22"><path d="M36.866 30.428a1 1 0 0 0 .608.466 1 1 0 0 0 .758-.1l3.464-2a1 1 0 0 0 .366-1.366l-2-3.464A1 1 0 0 0 38.7 23.6l-3.464 2a1 1 0 0 0-.366 1.366Zm1.964-4.6 1 1.732-1.731 1-1-1.732ZM43.794 26.428a1 1 0 0 0 .607.466 1 1 0 0 0 .759-.1l3.464-2a1 1 0 0 0 .366-1.366l-2-3.464a1 1 0 0 0-1.366-.366l-3.464 2a1 1 0 0 0-.366 1.366Zm1.964-4.6 1 1.732-1.732 1-1-1.732ZM17.51 28.9a2 2 0 0 0 2.732.732l6.062-3.5a2 2 0 0 0 .732-2.732l-2-3.464a2 2 0 0 0-2.732-.732l-6.062 3.5a2 2 0 0 0-.733 2.732Zm1.732-1-.5-.866.866-.5.5.866Zm3.464-2-.866.5-2-3.464.866-.5Zm1.732-1-.5-.866.867-.5.5.865Zm-.638-3.1-.866.5-.5-.866.866-.5Zm-5.7 2.134.5.866-.865.5-.5-.866Z" fill="#ffffff" opacity="1" data-original="#000000" className=""></path><path d="M58 44.18V31a3.009 3.009 0 0 0-3-3h-.45a4.937 4.937 0 0 0 1.14-2.05 5.014 5.014 0 0 0-.5-3.79l-10-17.32a4.95 4.95 0 0 0-3.04-2.33 5.014 5.014 0 0 0-3.79.5l-27.72 16a5 5 0 0 0-1.83 6.83L10.06 28H9a5 5 0 0 0-5 5v24a5 5 0 0 0 5 5h46a3.009 3.009 0 0 0 3-3v-5.18A3.01 3.01 0 0 0 60 51v-4a3.01 3.01 0 0 0-2-2.82ZM10.24 22.57a2.986 2.986 0 0 1 1.4-1.82L39.36 4.74a2.99 2.99 0 0 1 4.09 1.1l10.01 17.32a2.99 2.99 0 0 1-1.1 4.09L44.14 32h-8.89a1.009 1.009 0 0 0-.11-.57l-2-3.47a1.026 1.026 0 0 0-.61-.47 1.055 1.055 0 0 0-.76.1l-3.47 2a1.01 1.01 0 0 0-.37 1.37l.6 1.04H14.68l-4.14-7.16a3 3 0 0 1-.3-2.27Zm22.66 8.99-.76.44h-1.3l-.68-1.17 1.74-1Zm-26.03-.68A3.013 3.013 0 0 1 9 30h2.21l1.16 2H9a1 1 0 0 0 0 2h44a1 1 0 0 0 0-2h-4.86l3.46-2H55a1 1 0 0 1 1 1v5H9a3.005 3.005 0 0 1-2.13-5.12ZM56 59a1 1 0 0 1-1 1H9a3.009 3.009 0 0 1-3-3V36.97A4.924 4.924 0 0 0 9 38h47v6h-5a3.009 3.009 0 0 0-3 3v4a3.009 3.009 0 0 0 3 3h5Zm2-8a1 1 0 0 1-1 1h-6a1 1 0 0 1-1-1v-4a1 1 0 0 1 1-1h6a1 1 0 0 1 1 1Z" fill="#ffffff" opacity="1" data-original="#000000" className=""></path><path d="M53 48h-1a1 1 0 0 0 0 2h1a1 1 0 0 0 0-2ZM13 56h-2a1 1 0 0 1-1-1v-2a1 1 0 0 0-2 0v2a3 3 0 0 0 3 3h2a1 1 0 0 0 0-2Z" fill="#ffffff" opacity="1" data-original="#000000" className=""></path></g></g></svg>