<svg xmlns="http://www.w3.org/2000/svg" version="1.1" xmlns:xlink="http://www.w3.org/1999/xlink" width="512" height="512" x="0" y="0" viewBox="0 0 64 64" style="enable-background:new 0 0 512 512" xml:space="preserve" className=""><g><path d="M31 56h2v2h-2zM48.254 49.678l1.414-1.414 1.414 1.414-1.414 1.414zM56 31h2v2h-2z" fill="#ffffff" opacity="1" data-original="#000000"></path><path d="M61 25h-7.09a22.547 22.547 0 0 0-1.465-3.542l5.011-5.012a1 1 0 0 0 0-1.414l-4.243-4.242a30 30 0 1 0-42.426 42.423l4.242 4.243a1 1 0 0 0 1.414 0l5.012-5.011A22.559 22.559 0 0 0 25 53.909V61a1 1 0 0 0 1 1h12a1 1 0 0 0 1-1v-7.09a22.559 22.559 0 0 0 3.542-1.464l5.012 5.011a1 1 0 0 0 1.414 0l8.485-8.485a1 1 0 0 0 0-1.414l-5.011-5.012A22.559 22.559 0 0 0 53.909 39H61a1 1 0 0 0 1-1V26a1 1 0 0 0-1-1zM12.2 12.2a27.989 27.989 0 0 1 38.874-.69l-1.412 1.412a26 26 0 0 0-36.74 36.74l-1.412 1.412A27.989 27.989 0 0 1 12.2 12.2zm28.285 11.315a12 12 0 0 1-16.97 16.97 1 1 0 0 0-1.414 0l-7.764 7.764a24 24 0 0 1 33.912-33.912L40.485 22.1a1 1 0 0 0 0 1.415zM60 37h-6.836a1 1 0 0 0-.964.732 20.49 20.49 0 0 1-1.861 4.5 1 1 0 0 0 .166 1.2l4.829 4.83-7.07 7.07-4.83-4.829a1 1 0 0 0-1.2-.166 20.49 20.49 0 0 1-4.5 1.861 1 1 0 0 0-.732.964V60H27v-6.836a1 1 0 0 0-.732-.964 20.49 20.49 0 0 1-4.5-1.861 1 1 0 0 0-1.2.166l-4.83 4.829-2.828-2.828 9.925-9.924a14 14 0 0 0 19.747-19.749l9.924-9.925 2.828 2.828-4.829 4.83a1 1 0 0 0-.166 1.2 20.473 20.473 0 0 1 1.861 4.5 1 1 0 0 0 .964.732H60z" fill="#ffffff" opacity="1" data-original="#000000"></path><path d="M33 28.142V17a1 1 0 0 0-2 0v11.142A4 4 0 0 0 28.142 31H21a1 1 0 0 0 0 2h7.142A3.992 3.992 0 1 0 33 28.142zM32 34a2 2 0 1 1 2-2 2 2 0 0 1-2 2zM32 13a1 1 0 0 1-1-1v-2a1 1 0 0 1 2 0v2a1 1 0 0 1-1 1zM42 15.68a1 1 0 0 1-.865-1.5l1-1.733a1 1 0 0 1 1.732 1l-1 1.733a1 1 0 0 1-.867.5zM22 15.68a1 1 0 0 1-.867-.5l-1-1.733a1 1 0 0 1 1.732-1l1 1.733a1 1 0 0 1-.865 1.5zM14.679 23a.992.992 0 0 1-.5-.134l-1.733-1a1 1 0 0 1 1-1.732l1.733 1a1 1 0 0 1-.5 1.866zM12 33h-2a1 1 0 0 1 0-2h2a1 1 0 0 1 0 2zM12.948 44a1 1 0 0 1-.5-1.866l1.733-1a1 1 0 1 1 1 1.732l-1.733 1a.992.992 0 0 1-.5.134z" fill="#ffffff" opacity="1" data-original="#000000"></path><path d="M32 42a9.914 9.914 0 0 1-7.068-2.934 1 1 0 1 1 1.416-1.412 7.995 7.995 0 1 0 11.306-11.306 1 1 0 1 1 1.412-1.416A10 10 0 0 1 32 42z" fill="#ffffff" opacity="1" data-original="#000000"></path></g></svg>